<svg width="22" height="21" viewBox="0 0 22 21" fill="none" xmlns="http://www.w3.org/2000/svg">
<path d="M19.4134 2.76153C18.3781 1.62561 16.9575 1 15.413 1C14.2585 1 13.2012 1.36922 12.2704 2.09733C11.8008 2.46486 11.3752 2.9145 11 3.43932C10.6249 2.91466 10.1992 2.46486 9.7294 2.09733C8.79877 1.36922 7.74149 1 6.58701 1C5.04251 1 3.62177 1.62561 2.58646 2.76153C1.56351 3.88418 1 5.41788 1 7.08032C1 8.79138 1.63034 10.3576 2.98364 12.0096C4.19427 13.4873 5.93423 14.9873 7.94916 16.7243C8.63718 17.3175 9.41705 17.9899 10.2268 18.7061C10.4408 18.8957 11 19.5 11 19.5C11 19.5 11.5592 18.8957 11.7729 18.7064C12.5826 17.99 13.363 17.3173 14.0513 16.7238C16.0659 14.9872 17.8059 13.4873 19.0165 12.0094C20.3698 10.3576 21 8.79138 21 7.08016C21 5.41788 20.4365 3.88418 19.4134 2.76153Z" stroke="#97A2B6" stroke-width="2"/>
</svg>
