<svg width="106" height="30" viewBox="0 0 106 30" fill="none" xmlns="http://www.w3.org/2000/svg">
<path d="M0 29.8168V0H10.1971C13.6956 0 16.5685 0.624733 18.8155 1.8742C21.091 3.09526 22.7692 4.82748 23.8501 7.07083C24.9594 9.28579 25.514 11.8983 25.514 14.9084C25.514 17.9185 24.9594 20.5452 23.8501 22.7885C22.7692 25.0035 21.091 26.7357 18.8155 27.9852C16.5685 29.2062 13.6956 29.8168 10.1971 29.8168H0ZM5.46119 25.1313H9.94108C12.4441 25.1313 14.421 24.7337 15.8716 23.9386C17.3222 23.1151 18.3604 21.9508 18.9862 20.4458C19.6119 18.9123 19.9248 17.0665 19.9248 14.9084C19.9248 12.7786 19.6119 10.947 18.9862 9.41358C18.3604 7.88014 17.3222 6.70167 15.8716 5.87816C14.421 5.05465 12.4441 4.6429 9.94108 4.6429H5.46119V25.1313Z" fill="white"/>
<path d="M27.346 29.8168V0H32.8072V29.8168H27.346Z" fill="white"/>
<path d="M34.7558 29.8168V0H54.2539V4.38732H40.217V12.5656H52.974V16.8252H40.217V25.4294H54.2539V29.8168H34.7558Z" fill="white"/>
<path d="M56.2219 29.8168V0H61.6831L75.7201 20.9995V0H81.1813V29.8168H75.7201L61.6831 8.85984V29.8168H56.2219Z" fill="white"/>
<path d="M91.7923 29.8168V4.38732H83.0885V0H106V4.38732H97.2535V29.8168H91.7923Z" fill="white"/>
</svg>
