<svg width="24" height="14" viewBox="0 0 24 14" fill="none" xmlns="http://www.w3.org/2000/svg">
<path d="M22.9566 10.9194C22.434 10.2864 21.8402 9.71911 21.2659 9.17045C21.0618 8.97531 20.8506 8.77358 20.6471 8.57298C20.0628 7.99646 20.0415 7.77986 20.5041 7.125C20.8242 6.6736 21.1636 6.22161 21.4917 5.78448C21.7894 5.38788 22.0973 4.97775 22.3923 4.56629L22.4529 4.48169C23.0168 3.6943 23.5999 2.88011 23.9103 1.89791C23.9909 1.63878 24.0755 1.25745 23.882 0.938591C23.6887 0.619994 23.3136 0.522795 23.0482 0.477395C22.9169 0.454929 22.7866 0.451862 22.6656 0.451862L18.9728 0.449196L18.9423 0.448929C18.3839 0.448929 18.0076 0.71446 17.792 1.26079C17.5862 1.78278 17.36 2.33864 17.102 2.86717C16.5885 3.91963 15.9363 5.13182 14.9927 6.14281L14.9528 6.18581C14.8413 6.30667 14.7151 6.44354 14.6228 6.44354C14.6087 6.44354 14.5933 6.4408 14.5758 6.43527C14.3804 6.35841 14.2492 5.88088 14.2551 5.65875C14.2552 5.65568 14.2552 5.65261 14.2552 5.64955L14.2527 1.34225C14.2527 1.32732 14.2516 1.31252 14.2497 1.29772C14.1557 0.597527 13.9477 0.161665 13.1614 0.00626622C13.1405 0.00206626 13.1192 0 13.0979 0H9.25805C8.63245 0 8.28775 0.256598 7.96372 0.640661C7.87625 0.743326 7.69419 0.957057 7.78443 1.21632C7.87599 1.47945 8.1732 1.53572 8.26998 1.55398C8.75037 1.64625 9.02115 1.94278 9.09785 2.46091C9.23176 3.36063 9.24821 4.32096 9.14964 5.48315C9.12216 5.80614 9.06779 6.05561 8.97822 6.26874C8.95741 6.31847 8.88362 6.4808 8.80837 6.48087C8.78446 6.48087 8.71529 6.4714 8.58931 6.38381C8.29144 6.17787 8.07351 5.88401 7.81944 5.52101C6.9551 4.28829 6.22968 2.93031 5.60144 1.36852C5.36845 0.793592 4.9333 0.471729 4.37562 0.462262C3.76283 0.452862 3.20726 0.448329 2.67739 0.448329C2.09843 0.448329 1.56168 0.453729 1.03756 0.464729C0.58887 0.472729 0.278515 0.608461 0.115213 0.868458C-0.0483542 1.12866 -0.0377184 1.47045 0.146856 1.88418C1.62438 5.19902 2.96403 7.60919 4.49069 9.69931C5.56042 11.1618 6.63338 12.1742 7.867 12.8849C9.16669 13.6352 10.6232 14 12.3196 14C12.5119 14 12.7108 13.9953 12.9113 13.9858C13.897 13.9373 14.2628 13.5773 14.309 12.6087C14.331 12.1137 14.3846 11.5946 14.6258 11.1518C14.778 10.8729 14.9199 10.8729 14.9665 10.8729C15.0564 10.8729 15.1677 10.9146 15.2874 10.9928C15.5019 11.1342 15.6859 11.3235 15.8367 11.4889C15.9787 11.646 16.1191 11.8048 16.2596 11.9636C16.5628 12.3063 16.8763 12.6606 17.2039 12.9967C17.9208 13.7327 18.7105 14.0565 19.6176 13.9862H23.0034C23.0106 13.9862 23.0178 13.9859 23.025 13.9855C23.3624 13.963 23.6546 13.7741 23.8267 13.4673C24.0399 13.0873 24.0356 12.6024 23.8152 12.17C23.5651 11.6811 23.2408 11.2634 22.9566 10.9194Z" fill="white"/>
</svg>
